{
  "accessors": [
    {
      "bufferView": 2,
      "componentType": 5126,
      "count": 1998,
      "max": [
        4.44755220413208,
        17.98101043701172,
        6.599382400512695
      ],
      "min": [
        0.6894202828407288,
        6.720702171325684,
        0.2143360674381256
      ],
      "type": "VEC3"
    },
    {
      "bufferView": 2,
      "byteOffset": 23976,
      "componentType": 5126,
      "count": 1998,
      "max": [
        1.0,
        0.9980533123016357,
        1.0
      ],
      "min": [
        -1.0,
        -0.9999338984489441,
        -1.0
      ],
      "type": "VEC3"
    },
    {
      "bufferView": 1,
      "componentType": 5126,
      "count": 1998,
      "max": [
        0.99462890625,
        0.9957504272460938
      ],
      "min": [
        0.01428985595703125,
        0.00244140625
      ],
      "type": "VEC2"
    },
    {
      "bufferView": 0,
      "componentType": 5125,
      "count": 8586,
      "type": "SCALAR"
    },
    {
      "bufferView": 2,
      "byteOffset": 47952,
      "componentType": 5126,
      "count": 732,
      "max": [
        2.4487059116363525,
        15.825538635253906,
        17.648855209350586
      ],
      "min": [
        -2.990116596221924,
        -12.259215354919434,
        -3.428922653198242
      ],
      "type": "VEC3"
    },
    {
      "bufferView": 2,
      "byteOffset": 56736,
      "componentType": 5126,
      "count": 732,
      "max": [
        1.0,
        0.9999996423721313,
        1.0
      ],
      "min": [
        -1.0,
        -1.0,
        -1.0
      ],
      "type": "VEC3"
    },
    {
      "bufferView": 1,
      "byteOffset": 15984,
      "componentType": 5126,
      "count": 732,
      "max": [
        0.99658203125,
        0.93267822265625
      ],
      "min": [
        0.0024929046630859375,
        0.072265625
      ],
      "type": "VEC2"
    },
    {
      "bufferView": 0,
      "byteOffset": 34344,
      "componentType": 5125,
      "count": 2220,
      "type": "SCALAR"
    },
    {
      "bufferView": 2,
      "byteOffset": 65520,
      "componentType": 5126,
      "count": 9553,
      "max": [
        9.519207954406738,
        25.871339797973633,
        63.5035514831543
      ],
      "min": [
        -9.924439430236816,
        -1.571030855178833,
        -58.281524658203125
      ],
      "type": "VEC3"
    },
    {
      "bufferView": 2,
      "byteOffset": 180156,
      "componentType": 5126,
      "count": 9553,
      "max": [
        1.0,
        1.0,
        1.0
      ],
      "min": [
        -1.0,
        -1.0,
        -1.0
      ],
      "type": "VEC3"
    },
    {
      "bufferView": 1,
      "byteOffset": 21840,
      "componentType": 5126,
      "count": 9553,
      "max": [
        0.9970703125,
        0.9987335205078125
      ],
      "min": [
        0.0010232925415039063,
        0.00146484375
      ],
      "type": "VEC2"
    },
    {
      "bufferView": 0,
      "byteOffset": 43224,
      "componentType": 5125,
      "count": 25923,
      "type": "SCALAR"
    }
  ],
  "asset": {
    "extras": {
      "author": "00amza (https://sketchfab.com/00amza)",
      "license": "CC-BY-4.0 (http://creativecommons.org/licenses/by/4.0/)",
      "source": "https://sketchfab.com/3d-models/pubg-mobile-ak47-cfbff0a9550a4ae08fcb7f73962bfdf4",
      "title": "Pubg Mobile ak47"
    },
    "generator": "Sketchfab-16.95.0",
    "version": "2.0"
  },
  "bufferViews": [
    {
      "buffer": 0,
      "byteLength": 146916,
      "name": "floatBufferViews",
      "target": 34963
    },
    {
      "buffer": 0,
      "byteLength": 98264,
      "byteOffset": 146916,
      "byteStride": 8,
      "name": "floatBufferViews",
      "target": 34962
    },
    {
      "buffer": 0,
      "byteLength": 294792,
      "byteOffset": 245180,
      "byteStride": 12,
      "name": "floatBufferViews",
      "target": 34962
    }
  ],
  "buffers": [
    {
      "byteLength": 539972,
      "uri": "scene.bin"
    }
  ],
  "extensionsUsed": [
    "KHR_materials_specular"
  ],
  "images": [
    {
      "uri": "textures/prop_baseColor.png"
    },
    {
      "uri": "textures/akm_body_baseColor.png"
    }
  ],
  "materials": [
    {
      "doubleSided": true,
      "name": "prop",
      "pbrMetallicRoughness": {
        "baseColorTexture": {
          "index": 0
        },
        "metallicFactor": 0.3946678694639831,
        "roughnessFactor": 0.8308205978495098
      }
    },
    {
      "doubleSided": true,
      "extensions": {
        "KHR_materials_specular": {
          "specularColorFactor": [
            1.0,
            1.0,
            1.0
          ],
          "specularFactor": 0.07771452255854494
        }
      },
      "name": "akm_body",
      "pbrMetallicRoughness": {
        "baseColorTexture": {
          "index": 1
        },
        "metallicFactor": 0.38247735612146627,
        "roughnessFactor": 0.8308205978495098
      }
    }
  ],
  "meshes": [
    {
      "name": "prop_prop_0",
      "primitives": [
        {
          "attributes": {
            "NORMAL": 1,
            "POSITION": 0,
            "TEXCOORD_0": 2
          },
          "indices": 3,
          "material": 0,
          "mode": 4
        }
      ]
    },
    {
      "name": "mag_akm body_0",
      "primitives": [
        {
          "attributes": {
            "NORMAL": 5,
            "POSITION": 4,
            "TEXCOORD_0": 6
          },
          "indices": 7,
          "material": 1,
          "mode": 4
        }
      ]
    },
    {
      "name": "akm body_akm body_0",
      "primitives": [
        {
          "attributes": {
            "NORMAL": 9,
            "POSITION": 8,
            "TEXCOORD_0": 10
          },
          "indices": 11,
          "material": 1,
          "mode": 4
        }
      ]
    }
  ],
  "nodes": [
    {
      "children": [
        1
      ],
      "matrix": [
        1.0,
        0.0,
        0.0,
        0.0,
        0.0,
        2.220446049250313e-16,
        -1.0,
        0.0,
        0.0,
        1.0,
        2.220446049250313e-16,
        0.0,
        0.0,
        0.0,
        0.0,
        1.0
      ],
      "name": "Sketchfab_model"
    },
    {
      "children": [
        2
      ],
      "matrix": [
        0.009999999776482582,
        0.0,
        0.0,
        0.0,
        0.0,
        0.0,
        0.009999999776482582,
        0.0,
        0.0,
        -0.009999999776482582,
        0.0,
        0.0,
        0.0,
        0.0,
        0.0,
        1.0
      ],
      "name": "7235dfef867b439ea7cb475dc3e0988a.fbx"
    },
    {
      "children": [
        3,
        5,
        7
      ],
      "name": "RootNode"
    },
    {
      "children": [
        4
      ],
      "name": "prop"
    },
    {
      "mesh": 0,
      "name": "prop_prop_0"
    },
    {
      "children": [
        6
      ],
      "name": "mag"
    },
    {
      "mesh": 1,
      "name": "mag_akm body_0"
    },
    {
      "children": [
        8
      ],
      "name": "akm body"
    },
    {
      "mesh": 2,
      "name": "akm body_akm body_0"
    }
  ],
  "samplers": [
    {
      "magFilter": 9729,
      "minFilter": 9987,
      "wrapS": 10497,
      "wrapT": 10497
    }
  ],
  "scene": 0,
  "scenes": [
    {
      "name": "Sketchfab_Scene",
      "nodes": [
        0
      ]
    }
  ],
  "textures": [
    {
      "sampler": 0,
      "source": 0
    },
    {
      "sampler": 0,
      "source": 1
    }
  ]
}
